<svg width="33" height="32" viewBox="0 0 33 32" fill="none" xmlns="http://www.w3.org/2000/svg">
<path d="M0 5.71225C0 2.87136 2.303 0.568359 5.14389 0.568359H27.777C30.6179 0.568359 32.9209 2.87136 32.9209 5.71224V26.2878C32.9209 29.1287 30.6179 31.4317 27.777 31.4317H5.14389C2.303 31.4317 0 29.1287 0 26.2878V5.71225Z" fill="#040E53"/>
<path d="M16.2032 8.28418L24.2217 20.2437H8.18468L16.2032 8.28418Z" fill="#040E53"/>
<path d="M8.011 11.4876L16.0462 8.23947L8.29194 20.15L8.011 11.4876Z" fill="white"/>
<path d="M24.2365 11.6436L24.0303 20.3885L16.1398 8.3332L24.2365 11.6436Z" fill="white"/>
<path d="M16.2989 25.3379L8.22906 20.4307L24.3016 20.322L16.2989 25.3379Z" fill="white"/>
</svg>
