<svg width="64" height="60" viewBox="0 0 64 60" fill="none" xmlns="http://www.w3.org/2000/svg">
<path d="M0 10C0 4.47715 4.47715 0 10 0H54C59.5228 0 64 4.47715 64 10V50C64 55.5228 59.5228 60 54 60H10C4.47715 60 0 55.5228 0 50V10Z" fill="white"/>
<path d="M31.5 15L47.0885 38.25H15.9115L31.5 15Z" fill="white"/>
<path d="M15.5739 21.2278L31.1948 14.9133L16.1201 38.0679L15.5739 21.2278Z" fill="#463EA5"/>
<path d="M47.1172 21.5309L46.7163 38.5314L31.3767 15.0953L47.1172 21.5309Z" fill="#463EA5"/>
<path d="M31.6859 48.1533L15.9977 38.6135L47.2436 38.4021L31.6859 48.1533Z" fill="#463EA5"/>
</svg>
